<?xml version="1.0" standalone="no"?>
<!DOCTYPE svg PUBLIC "-//W3C//DTD SVG 20010904//EN"
 "http://www.w3.org/TR/2001/REC-SVG-20010904/DTD/svg10.dtd">
<svg version="1.0" xmlns="http://www.w3.org/2000/svg"
 width="367.000000pt" height="367.000000pt" viewBox="0 0 367.000000 367.000000"
 preserveAspectRatio="xMidYMid meet">
<metadata>
Created by potrace 1.14, written by Peter Selinger 2001-2017
</metadata>
<g transform="translate(0.000000,367.000000) scale(0.100000,-0.100000)"
fill="#000000" stroke="none">
<path d="M230 2760 l0 -910 -115 0 c-94 0 -115 -3 -115 -15 0 -11 20 -15 100
-17 l99 -3 -99 -105 c-80 -85 -99 -111 -99 -135 0 -28 6 -24 104 78 76 78 105
103 105 88 0 -34 -70 -509 -95 -645 -33 -176 -68 -296 -94 -317 -21 -17 -29
-69 -11 -69 57 0 110 199 184 690 l34 225 1 -807 c1 -529 4 -808 11 -808 6 0
11 312 12 903 l3 902 213 3 c116 1 212 1 212 -2 0 -2 20 -147 45 -322 95 -666
156 -864 234 -756 48 68 95 291 163 775 l43 307 214 -2 215 -3 33 -240 c80
-588 134 -821 196 -859 43 -26 92 89 136 314 24 120 49 284 86 550 14 102 28
197 31 213 l6 27 212 0 212 0 33 -237 c82 -604 139 -848 202 -868 75 -24 126
198 244 1063 l6 42 209 0 c132 0 211 -4 215 -10 4 -6 22 -122 41 -258 77 -549
122 -758 177 -819 27 -30 37 -29 37 5 0 16 -8 32 -20 39 -31 20 -72 176 -115
439 -22 134 -75 515 -75 534 1 8 48 -34 105 -95 99 -105 104 -109 105 -80 0
26 -18 50 -101 138 l-101 107 101 0 c83 0 101 3 101 15 0 12 -19 15 -113 15
l-113 0 -18 133 c-55 413 -108 716 -147 839 -24 75 -59 121 -84 112 -44 -17
-90 -170 -139 -466 l-31 -188 -100 93 c-193 177 -345 295 -487 378 -38 22 -68
47 -68 55 0 25 -50 122 -66 128 -15 6 -49 -23 -69 -58 -10 -17 -13 -17 -73 3
-209 71 -432 71 -656 0 -57 -18 -62 -18 -71 -2 -5 9 -21 28 -33 41 l-24 25
-24 -24 c-13 -13 -32 -49 -42 -78 -17 -51 -23 -58 -93 -100 -165 -100 -328
-229 -490 -387 -42 -41 -79 -74 -83 -74 -3 0 -6 10 -6 23 0 38 -49 316 -75
422 -55 232 -108 270 -164 119 -38 -101 -77 -308 -139 -734 -6 -44 -10 196
-11 748 -1 534 -4 812 -11 812 -7 0 -10 -310 -10 -910z m274 65 c23 -54 55
-196 87 -385 l30 -182 -53 -56 c-29 -32 -110 -118 -181 -192 -120 -125 -128
-132 -123 -100 3 19 22 150 42 290 54 383 99 595 140 658 13 19 18 21 30 11 8
-7 21 -27 28 -44z m896 35 c9 -17 6 -22 -22 -33 -38 -16 -46 -6 -24 28 20 30
32 31 46 5z m575 6 c50 -7 123 -23 163 -35 67 -20 73 -24 68 -44 -32 -113 -91
-476 -143 -872 l-8 -60 -217 -3 -216 -2 -6 27 c-3 16 -15 98 -26 183 -41 304
-96 619 -126 726 -5 19 2 24 63 42 174 52 292 62 448 38z m339 -8 c27 -39 20
-50 -18 -31 -29 14 -33 19 -25 35 13 24 24 23 43 -4z m928 -28 c37 -95 94
-392 138 -725 11 -88 23 -175 27 -193 5 -30 -16 -11 -175 156 l-181 189 24
151 c42 259 76 396 111 450 13 20 18 21 31 11 8 -7 20 -25 25 -39z m-1798 -92
c23 -81 62 -299 101 -574 19 -137 37 -264 40 -281 l6 -33 -211 0 c-115 0 -210
2 -210 5 0 34 97 666 115 753 14 64 25 120 25 124 0 6 98 57 112 58 4 0 14
-24 22 -52z m859 28 l54 -24 17 -72 c28 -125 126 -754 126 -809 0 -8 -68 -11
-210 -11 l-209 0 4 28 c3 15 23 154 45 309 47 329 99 603 115 603 3 0 29 -11
58 -24z m-1034 -78 c-13 -50 -65 -370 -94 -583 -14 -104 -28 -205 -31 -222
l-6 -33 -217 0 -216 0 -26 186 -25 186 115 108 c146 137 263 231 398 320 58
38 107 70 109 70 1 0 -2 -15 -7 -32z m1265 -58 c123 -84 325 -252 417 -347
l67 -68 -26 -182 -26 -183 -218 0 c-120 0 -218 4 -218 8 0 27 -85 598 -106
709 -13 73 -24 135 -24 139 0 12 31 -6 134 -76z m-1878 -632 c10 -76 15 -140
12 -143 -3 -3 -87 -4 -188 -3 l-183 3 164 169 c189 195 166 198 195 -26z
m2535 -146 c-101 -1 -186 0 -189 3 -3 2 5 76 17 162 11 87 21 163 21 168 0 6
76 -66 168 -160 l167 -170 -184 -3z m-2088 -269 c-77 -556 -134 -813 -179
-813 -31 0 -68 112 -108 330 -19 103 -106 691 -106 716 0 2 96 4 213 4 l213 0
-33 -237z m942 205 c-3 -18 -23 -161 -45 -317 -81 -571 -140 -777 -194 -673
-38 73 -91 350 -146 752 -17 124 -33 235 -35 248 l-5 22 215 0 216 0 -6 -32z
m915 21 c0 -42 -96 -666 -120 -782 -41 -196 -63 -257 -95 -257 -29 0 -74 156
-115 400 -24 140 -90 605 -90 633 0 16 17 17 210 17 146 0 210 -3 210 -11z"/>
</g>
</svg>
