<?xml version="1.0" standalone="no"?>
<!DOCTYPE svg PUBLIC "-//W3C//DTD SVG 20010904//EN"
 "http://www.w3.org/TR/2001/REC-SVG-20010904/DTD/svg10.dtd">
<svg version="1.0" xmlns="http://www.w3.org/2000/svg"
 width="1500.000000pt" height="1500.000000pt" viewBox="0 0 1500.000000 1500.000000"
 preserveAspectRatio="xMidYMid meet">
<metadata>
Created by potrace 1.14, written by Peter Selinger 2001-2017
</metadata>
<g transform="translate(0.000000,1500.000000) scale(0.100000,-0.100000)"
fill="#000000" stroke="none">
<path d="M3192 14926 c-380 -258 -521 -401 -854 -866 -83 -116 -198 -296 -198
-310 0 -4 -3 -10 -7 -12 -12 -5 -98 -152 -197 -333 -53 -99 -306 -611 -306
-620 0 -2 -15 -37 -33 -77 -19 -40 -43 -95 -55 -123 -11 -27 -31 -72 -43 -100
-12 -27 -23 -52 -24 -55 -5 -15 -27 -66 -47 -108 -12 -26 -22 -49 -23 -52 -2
-14 -79 -206 -86 -215 -4 -6 -28 -64 -52 -130 -42 -112 -65 -171 -86 -220 -9
-21 -30 -75 -76 -205 -15 -41 -31 -84 -35 -95 -51 -127 -79 -204 -82 -220 -2
-11 -5 -22 -8 -25 -3 -3 -14 -32 -24 -65 -11 -33 -23 -64 -28 -70 -4 -5 -8
-14 -8 -21 0 -6 -8 -29 -17 -50 -9 -22 -17 -41 -18 -44 -1 -3 -5 -18 -10 -35
-4 -16 -13 -36 -19 -44 -6 -8 -10 -16 -8 -18 4 -4 -53 -182 -73 -228 -7 -16
-30 -82 -50 -145 -20 -63 -40 -124 -45 -135 -5 -11 -41 -114 -80 -230 -39
-115 -75 -221 -80 -235 -5 -14 -37 -113 -71 -220 -34 -107 -81 -253 -104 -325
-69 -209 -88 -269 -88 -282 0 -7 -4 -13 -9 -13 -4 0 -8 -8 -8 -19 0 -10 -6
-34 -14 -52 -8 -19 -14 -38 -14 -42 0 -10 -90 -294 -104 -327 -24 -57 -27 -66
-34 -100 -3 -19 -10 -41 -14 -50 -5 -8 -20 -52 -34 -98 l-26 -83 0 -2315 0
-2316 32 7 c44 10 90 42 115 79 11 17 45 105 76 196 31 91 104 305 163 475
131 384 190 556 196 575 3 8 39 112 81 230 41 118 99 289 128 380 63 194 54
168 64 208 4 17 11 32 16 32 5 0 9 8 9 18 0 17 79 276 99 327 5 11 13 36 19
55 6 19 47 150 92 290 45 140 89 278 98 305 8 28 25 75 37 105 26 63 53 146
58 175 3 17 43 90 125 223 20 33 176 274 202 312 6 8 35 53 64 100 30 47 64
96 75 110 12 14 28 41 37 60 10 19 58 96 108 171 87 130 242 370 399 617 40
62 149 230 242 373 94 143 193 295 220 339 48 76 155 234 172 255 5 6 25 35
46 65 20 30 53 78 72 105 20 28 63 90 96 139 33 49 77 112 98 140 21 28 64 89
96 136 58 84 123 170 137 180 4 3 34 44 67 90 33 47 69 96 80 110 12 14 21 29
21 34 0 7 22 37 77 106 7 8 40 51 75 95 34 44 65 82 68 85 4 3 42 52 86 109
169 220 160 209 389 480 77 91 164 191 195 221 30 31 62 67 71 80 18 27 130
149 276 300 l92 95 36 -80 c20 -44 47 -102 60 -130 38 -82 61 -135 100 -230
20 -49 48 -114 61 -143 13 -29 24 -55 24 -58 0 -3 9 -24 19 -47 10 -23 51
-125 91 -227 39 -102 87 -221 106 -266 18 -45 34 -84 34 -88 0 -4 9 -26 19
-49 11 -23 36 -94 56 -157 21 -63 46 -133 55 -155 10 -22 27 -65 38 -95 11
-30 23 -64 27 -75 57 -153 197 -553 234 -665 12 -36 26 -78 32 -95 5 -16 50
-151 100 -300 50 -148 94 -278 100 -287 5 -10 9 -25 9 -33 0 -8 4 -23 9 -33 5
-9 36 -100 69 -202 127 -395 206 -639 239 -740 19 -58 37 -112 38 -120 2 -8 4
-15 5 -15 1 0 3 -7 5 -15 1 -8 12 -40 23 -70 11 -30 32 -95 47 -145 15 -49 31
-99 36 -110 4 -11 13 -36 19 -55 6 -19 26 -82 44 -140 18 -58 37 -121 41 -140
4 -19 11 -39 15 -45 5 -5 17 -44 28 -85 11 -41 25 -88 31 -105 60 -167 291
-876 291 -893 0 -7 4 -20 10 -30 9 -16 60 -173 75 -232 3 -14 10 -34 15 -45 8
-19 38 -108 160 -490 85 -269 151 -469 160 -490 9 -19 79 -220 84 -240 2 -5 9
-23 15 -40 7 -16 14 -37 16 -45 10 -46 19 -76 25 -85 4 -5 29 -73 55 -150 26
-77 70 -201 97 -275 27 -74 59 -164 70 -200 11 -36 24 -69 28 -75 4 -5 17 -37
29 -70 13 -33 27 -69 31 -80 4 -11 27 -72 50 -135 70 -191 180 -473 201 -513
10 -22 19 -43 19 -48 0 -5 9 -28 20 -52 10 -23 32 -76 48 -117 32 -79 124
-291 174 -400 17 -36 47 -103 68 -150 41 -93 252 -522 260 -530 3 -3 20 -32
37 -65 46 -91 126 -226 216 -367 45 -70 87 -136 92 -145 22 -38 76 -117 143
-208 27 -37 137 -181 142 -185 5 -5 68 -80 130 -155 27 -33 163 -168 201 -200
13 -10 104 -77 202 -147 l178 -128 778 0 778 0 66 48 c37 26 104 73 150 105
171 117 359 298 477 457 19 26 68 89 109 141 88 113 290 416 391 589 97 165
137 239 249 466 52 104 98 196 103 204 4 8 11 22 14 30 11 28 37 84 91 200 30
63 86 191 125 285 79 192 121 292 148 350 28 60 140 359 140 373 0 7 4 12 10
12 5 0 9 3 8 8 -2 4 18 61 44 127 25 66 58 154 73 195 14 41 35 93 46 116 10
23 19 46 19 52 0 5 30 93 66 194 126 349 188 525 198 563 2 6 6 17 9 25 3 8
27 78 52 155 44 133 52 154 75 208 9 21 30 96 36 126 1 7 7 18 13 24 6 6 11
21 11 33 0 13 4 26 10 29 6 3 10 16 10 29 0 12 3 26 7 30 4 3 8 12 9 19 1 7
18 59 37 117 19 58 52 158 72 223 21 65 41 114 45 110 4 -4 49 -75 101 -156
52 -81 112 -176 134 -210 22 -34 61 -96 87 -137 l48 -75 0 3278 0 3278 -28
-16 c-44 -26 -64 -68 -132 -265 -137 -400 -253 -739 -280 -820 -118 -349 -230
-671 -239 -689 -7 -12 -26 -65 -43 -119 -17 -53 -52 -162 -77 -241 l-47 -144
-92 136 c-51 75 -92 138 -92 140 0 2 -42 67 -92 144 -51 76 -97 146 -103 155
-5 10 -29 44 -52 78 -24 33 -43 64 -43 68 0 6 -96 142 -120 169 -5 7 -10 15
-10 18 0 6 -40 65 -50 75 -3 3 -30 41 -60 85 -143 209 -173 253 -280 406 -63
90 -118 169 -123 174 -4 6 -39 55 -77 110 -100 142 -168 238 -183 255 -7 8
-22 31 -34 51 -13 19 -33 47 -46 61 -14 15 -59 73 -101 130 -41 56 -114 153
-161 213 -47 61 -131 171 -188 245 -56 74 -111 146 -123 160 -12 14 -79 95
-150 180 -70 85 -131 157 -134 160 -3 3 -23 28 -45 55 -21 28 -42 52 -46 55
-3 3 -27 31 -53 63 -26 32 -55 66 -64 76 -9 10 -39 43 -67 74 -170 188 -231
252 -420 446 -115 118 -225 228 -244 245 -19 17 -56 51 -82 76 -104 98 -188
171 -274 240 -49 40 -115 94 -145 120 -30 25 -80 65 -111 87 -31 23 -62 47
-70 55 -8 7 -25 19 -39 26 -14 7 -41 27 -60 45 -45 42 -216 167 -229 167 -5 0
-11 3 -13 8 -1 4 -19 16 -38 26 -19 11 -99 62 -177 113 -79 51 -145 93 -147
93 -2 0 -47 24 -99 54 -52 29 -123 67 -158 83 -121 58 -264 121 -324 143 -33
12 -69 26 -80 30 -28 11 -58 23 -70 26 -5 1 -48 14 -95 28 l-85 26 -1120 0
c-918 0 -1128 -3 -1165 -14 -142 -43 -495 -179 -565 -218 -11 -6 -65 -35 -121
-64 -57 -30 -139 -76 -184 -104 -45 -27 -85 -50 -88 -50 -4 0 -29 22 -57 50
-97 97 -208 185 -380 301 -60 41 -123 80 -138 87 -21 9 -204 12 -757 12 l-730
0 -108 -74z m4548 -1351 c30 -3 71 -8 90 -11 19 -3 52 -8 72 -9 37 -4 245 -62
263 -74 6 -4 28 -13 50 -20 43 -13 45 -14 150 -62 153 -69 225 -105 334 -166
62 -34 115 -63 117 -63 3 0 50 -30 107 -67 56 -38 109 -72 119 -78 26 -16 176
-125 190 -138 7 -7 49 -42 93 -77 44 -36 82 -67 85 -70 3 -3 30 -25 60 -49 30
-25 65 -54 76 -65 12 -12 64 -59 115 -106 198 -180 631 -623 688 -703 8 -11
28 -34 45 -52 139 -144 185 -195 211 -230 17 -21 37 -47 45 -55 8 -9 24 -27
35 -41 86 -104 139 -167 156 -185 10 -12 19 -26 19 -32 0 -5 6 -12 14 -15 8
-3 29 -27 46 -54 18 -26 38 -52 44 -58 7 -5 39 -46 72 -90 32 -44 62 -82 65
-85 14 -12 227 -287 238 -308 15 -28 150 -215 161 -222 4 -3 53 -68 108 -145
56 -77 105 -145 110 -151 5 -5 22 -30 38 -55 16 -24 31 -46 34 -49 3 -3 24
-32 46 -65 22 -33 116 -170 210 -305 93 -135 186 -270 205 -300 20 -30 72
-108 115 -173 43 -65 84 -125 89 -135 33 -55 291 -438 298 -440 4 -2 7 -8 7
-13 0 -5 52 -88 115 -184 63 -96 115 -180 115 -185 0 -6 5 -10 10 -10 6 0 10
-5 10 -11 0 -9 49 -87 245 -388 28 -42 55 -84 60 -93 6 -9 54 -85 108 -168 53
-83 97 -156 97 -161 0 -5 -4 -17 -9 -27 -5 -9 -25 -71 -46 -137 -20 -66 -40
-129 -45 -140 -7 -18 -51 -158 -56 -177 -1 -5 -3 -10 -4 -13 -1 -3 -3 -8 -4
-12 -3 -12 -157 -486 -163 -503 -3 -8 -7 -19 -8 -25 -2 -8 -48 -150 -81 -255
-3 -8 -5 -16 -5 -17 0 -2 -11 -33 -25 -70 -14 -38 -34 -95 -44 -128 -10 -33
-23 -73 -30 -90 -7 -16 -18 -50 -25 -75 -12 -39 -183 -540 -198 -580 -4 -8
-16 -44 -27 -80 -18 -56 -58 -170 -77 -220 -4 -8 -7 -17 -7 -20 -1 -7 -35
-100 -46 -125 -4 -11 -13 -33 -18 -50 -6 -16 -13 -39 -18 -50 -4 -11 -8 -25
-9 -31 -2 -5 -15 -39 -29 -75 -15 -35 -36 -92 -46 -125 -10 -34 -24 -77 -33
-95 -8 -19 -21 -52 -30 -74 -45 -113 -108 -277 -130 -335 -14 -36 -31 -78 -38
-95 -7 -16 -13 -33 -14 -37 -2 -5 -4 -10 -5 -13 -1 -3 -3 -8 -4 -12 -10 -42
-133 -333 -147 -347 -5 -6 -9 -16 -9 -24 0 -8 -6 -28 -14 -45 -8 -18 -27 -61
-42 -97 -14 -36 -41 -98 -60 -138 -18 -40 -34 -74 -34 -77 0 -3 -13 -31 -29
-62 -16 -32 -50 -105 -77 -163 -26 -58 -62 -132 -79 -165 -18 -33 -65 -123
-105 -200 -80 -155 -98 -186 -180 -325 -80 -134 -126 -204 -188 -289 -77 -104
-253 -291 -306 -326 -43 -28 -80 -7 -198 114 -177 183 -303 366 -495 716 -60
109 -332 656 -331 664 1 6 -10 32 -74 171 -17 36 -31 70 -32 75 -1 6 -8 20
-15 33 -13 25 -101 231 -105 247 -1 6 -9 26 -17 45 -9 19 -48 118 -89 220 -40
102 -79 199 -85 215 -7 17 -27 68 -45 115 -18 47 -42 110 -53 140 -12 30 -23
60 -24 65 -11 42 -48 147 -64 180 -19 41 -96 245 -129 345 -23 67 -102 297
-210 610 -45 129 -92 269 -105 310 -12 41 -37 118 -55 170 -17 52 -33 100 -34
105 -2 6 -6 18 -10 27 -4 9 -9 22 -10 30 -2 7 -6 20 -9 28 -3 8 -13 40 -22 70
-9 30 -20 63 -26 72 -5 10 -9 28 -9 41 0 13 -3 26 -6 30 -7 7 -54 137 -49 137
2 0 -6 24 -16 53 -11 28 -22 59 -24 67 -2 8 -21 69 -43 135 -21 66 -65 201
-97 300 -31 99 -76 239 -100 310 -23 72 -55 171 -70 220 -16 50 -33 96 -38
103 -5 6 -6 12 -3 12 4 0 2 8 -3 18 -6 11 -12 30 -15 43 -2 13 -11 44 -20 69
-8 25 -29 92 -46 150 -18 58 -41 130 -51 160 -11 30 -47 138 -80 240 -33 102
-78 237 -99 300 -21 63 -71 216 -110 340 -40 124 -85 265 -102 315 -17 49 -31
94 -33 100 -1 5 -5 17 -8 25 -3 8 -25 76 -48 150 -23 74 -46 144 -50 155 -5
11 -25 72 -45 135 -20 63 -40 124 -46 135 -5 12 -11 30 -13 40 -2 11 -4 20 -4
20 -3 0 -129 365 -135 390 -2 6 -6 18 -10 27 -4 9 -8 22 -10 30 -1 7 -4 18 -8
23 -3 6 -15 39 -26 75 -11 36 -39 117 -62 180 -23 63 -43 120 -44 125 -2 6 -6
17 -9 25 -20 46 -111 304 -127 356 -9 33 -22 69 -28 80 -6 10 -22 51 -36 91
-14 39 -64 172 -111 295 -48 123 -98 252 -112 288 -21 55 -117 285 -170 410
-17 39 -20 46 -63 150 -17 41 -41 95 -53 120 -11 25 -21 47 -22 50 -1 3 -15
34 -32 70 -17 36 -58 125 -92 198 -34 74 -75 159 -92 189 -25 44 -28 57 -18
64 50 32 362 182 444 213 55 21 109 42 120 46 11 4 34 13 50 18 17 6 39 13 50
18 52 19 166 43 240 49 129 12 170 16 172 18 4 5 360 -2 413 -8z m-3686 -1 c9
-3 16 -11 16 -16 0 -5 -80 -90 -177 -188 -98 -98 -215 -218 -261 -266 l-83
-89 43 70 c104 172 317 417 413 476 35 22 29 21 49 13z"/>
</g>
</svg>
